<svg width="132" height="20" viewBox="0 0 132 20" fill="none" xmlns="http://www.w3.org/2000/svg">
<path d="M10.9101 0.808166L13.1545 5.35445C13.3105 5.67064 13.6123 5.88974 13.9614 5.94037L18.9801 6.66945C19.8593 6.79726 20.21 7.87698 19.5741 8.49651L15.9426 12.0353C15.6902 12.2813 15.5748 12.6361 15.6346 12.9835L16.4917 17.9804C16.642 18.8555 15.723 19.5228 14.9368 19.1099L10.4482 16.7509C10.136 16.5869 9.76285 16.5869 9.45071 16.7509L4.96203 19.1099C4.17587 19.5232 3.25688 18.8555 3.40714 17.9804L4.26428 12.9835C4.32406 12.6361 4.20866 12.2813 3.95629 12.0353L0.324755 8.49651C-0.311148 7.87656 0.0395948 6.79684 0.918735 6.66945L5.93747 5.94037C6.28656 5.88974 6.58832 5.67064 6.74439 5.35445L8.98873 0.808166C9.3814 0.0118613 10.5171 0.0118613 10.9101 0.808166Z" fill="#FBA229"/>
<path d="M38.8086 0.808166L41.0529 5.35445C41.209 5.67064 41.5107 5.88974 41.8598 5.94037L46.8786 6.66945C47.7577 6.79726 48.1084 7.87698 47.4725 8.49651L43.841 12.0353C43.5886 12.2813 43.4732 12.6361 43.533 12.9835L44.3902 17.9804C44.5404 18.8555 43.6214 19.5228 42.8353 19.1099L38.3466 16.7509C38.0344 16.5869 37.6613 16.5869 37.3492 16.7509L32.8605 19.1099C32.0743 19.5232 31.1553 18.8555 31.3056 17.9804L32.1627 12.9835C32.2225 12.6361 32.1071 12.2813 31.8547 12.0353L28.2232 8.49651C27.5873 7.87656 27.938 6.79684 28.8172 6.66945L33.8359 5.94037C34.185 5.88974 34.4868 5.67064 34.6428 5.35445L36.8872 0.808166C37.2798 0.0118613 38.4155 0.0118613 38.8086 0.808166Z" fill="#FBA229"/>
<path d="M66.707 0.808166L68.9514 5.35445C69.1074 5.67064 69.4092 5.88974 69.7583 5.94037L74.777 6.66945C75.6561 6.79726 76.0069 7.87698 75.371 8.49651L71.7394 12.0353C71.4871 12.2813 71.3717 12.6361 71.4315 12.9835L72.2886 17.9804C72.4389 18.8555 71.5199 19.5228 70.7337 19.1099L66.245 16.7509C65.9329 16.5869 65.5597 16.5869 65.2476 16.7509L60.7589 19.1099C59.9727 19.5232 59.0538 18.8555 59.204 17.9804L60.0612 12.9835C60.1209 12.6361 60.0055 12.2813 59.7532 12.0353L56.1216 8.49651C55.4857 7.87656 55.8365 6.79684 56.7156 6.66945L61.7343 5.94037C62.0834 5.88974 62.3852 5.67064 62.5413 5.35445L64.7856 0.808166C65.1783 0.0118613 66.3139 0.0118613 66.707 0.808166Z" fill="#FBA229"/>
<path d="M94.6054 0.808166L96.8498 5.35445C97.0059 5.67064 97.3076 5.88974 97.6567 5.94037L102.675 6.66945C103.555 6.79726 103.905 7.87698 103.269 8.49651L99.6379 12.0353C99.3855 12.2813 99.2701 12.6361 99.3299 12.9835L100.187 17.9804C100.337 18.8555 99.4183 19.5228 98.6321 19.1099L94.1435 16.7509C93.8313 16.5869 93.4582 16.5869 93.146 16.7509L88.6573 19.1099C87.8712 19.5232 86.9522 18.8555 87.1025 17.9804L87.9596 12.9835C88.0194 12.6361 87.904 12.2813 87.6516 12.0353L84.0201 8.49651C83.3842 7.87656 83.7349 6.79684 84.614 6.66945L89.6328 5.94037C89.9819 5.88974 90.2836 5.67064 90.4397 5.35445L92.684 0.808166C93.0767 0.0118613 94.2124 0.0118613 94.6054 0.808166Z" fill="#FBA229"/>
<path d="M122.504 0.808166L124.748 5.35445C124.904 5.67064 125.206 5.88974 125.555 5.94037L130.574 6.66945C131.453 6.79726 131.804 7.87698 131.168 8.49651L127.536 12.0353C127.284 12.2813 127.169 12.6361 127.228 12.9835L128.085 17.9804C128.236 18.8555 127.317 19.5228 126.531 19.1099L122.042 16.7509C121.73 16.5869 121.357 16.5869 121.044 16.7509L116.556 19.1099C115.77 19.5232 114.851 18.8555 115.001 17.9804L115.858 12.9835C115.918 12.6361 115.802 12.2813 115.55 12.0353L111.919 8.49651C111.283 7.87656 111.633 6.79684 112.512 6.66945L117.531 5.94037C117.88 5.88974 118.182 5.67064 118.338 5.35445L120.582 0.808166C120.975 0.0118613 122.111 0.0118613 122.504 0.808166Z" fill="#FBA229"/>
</svg>
